<svg id="Layer_1" viewBox="0 0 24 24" xmlns="http://www.w3.org/2000/svg" data-name="Layer 1"><path d="m5.504 20.741c-.498 0-.929-.372-.991-.879-.067-.548.323-1.047.872-1.113 1.92-.235 3.413-1.792 3.63-3.787.112-1.024.169-2.05.169-3.049 0-.553.448-1 1-1s1 .447 1 1c0 1.071-.061 2.17-.181 3.266-.318 2.923-2.529 5.207-5.376 5.555-.041.006-.082.008-.123.008z" opacity=".5"/><path d="m10.503 4.599c-.069-.317-.288-.581-.587-.708-.14-.059-3.461-1.427-7.796.057-.23.079-.424.239-.545.451-.135.236-.575 1.231-.575 4.118 0 2.743.406 3.685.648 4.002.07.092.155.171.252.233.203.131 1.367.784 4.413.784 3.073 0 4.183-.619 4.45-.81.264-.188.42-.491.42-.814 0-4.14-.652-7.186-.68-7.313z"/><path d="m17.32 20.741c-.498 0-.929-.372-.991-.879-.067-.548.323-1.047.872-1.113 1.92-.235 3.413-1.792 3.631-3.787.112-1.026.168-2.052.168-3.049 0-.553.448-1 1-1s1 .447 1 1c0 1.069-.061 2.168-.18 3.266-.319 2.923-2.53 5.207-5.377 5.555-.041.006-.082.008-.123.008z" opacity=".5"/><path d="m22.32 4.599c-.069-.317-.288-.581-.587-.708-.139-.059-3.461-1.427-7.796.057-.23.079-.424.239-.545.451-.135.236-.575 1.231-.575 4.118 0 2.743.406 3.685.648 4.002.07.092.155.171.252.233.203.131 1.367.784 4.413.784 3.073 0 4.183-.619 4.45-.81.264-.188.42-.491.42-.814 0-4.14-.652-7.186-.68-7.313z"/></svg>